<?xml version="1.0" encoding="UTF-8"?>
<svg xmlns="http://www.w3.org/2000/svg" xmlns:xlink="http://www.w3.org/1999/xlink" width="16pt" height="16pt" viewBox="0 0 16 16" version="1.1">
<g id="surface1">
<path style=" fill-rule:nonzero;fill-opacity:1;" d="M 9.878906 2.6875 L 1.078125 11.492188 C 1.03125 11.535156 1 11.59375 0.984375 11.652344 L 0.0117188 15.570312 C -0.0195312 15.6875 0.015625 15.8125 0.101562 15.898438 C 0.167969 15.964844 0.253906 16 0.347656 16 C 0.375 16 0.402344 15.996094 0.429688 15.988281 L 4.347656 15.011719 C 4.40625 14.996094 4.464844 14.964844 4.507812 14.921875 L 13.3125 6.117188 Z M 9.878906 2.6875 "/>
<path style=" fill-rule:nonzero;fill-opacity:1;" d="M 15.492188 1.488281 L 14.511719 0.507812 C 13.859375 -0.148438 12.714844 -0.148438 12.0625 0.507812 L 10.863281 1.707031 L 14.292969 5.136719 L 15.492188 3.9375 C 15.820312 3.609375 16 3.175781 16 2.710938 C 16 2.25 15.820312 1.8125 15.492188 1.488281 Z M 15.492188 1.488281 "/>
</g>
</svg>
