<?xml version="1.0" encoding="UTF-8"?>
<svg xmlns="http://www.w3.org/2000/svg" xmlns:xlink="http://www.w3.org/1999/xlink" width="16pt" height="16pt" viewBox="0 0 16 16" version="1.1">
<g id="surface1">
<path style=" fill-rule:nonzero;fill-opacity:1;" d="M 14.855469 2.285156 L 10.855469 2.285156 L 10.855469 1.714844 C 10.855469 0.765625 10.089844 0 9.144531 0 L 6.855469 0 C 5.910156 0 5.144531 0.765625 5.144531 1.714844 L 5.144531 2.285156 L 1.144531 2.285156 C 0.828125 2.285156 0.570312 2.542969 0.570312 2.855469 C 0.570312 3.171875 0.828125 3.429688 1.144531 3.429688 L 1.765625 3.429688 L 2.855469 15.480469 C 2.882812 15.777344 3.132812 16 3.429688 16 L 12.570312 16 C 12.867188 16 13.117188 15.777344 13.144531 15.480469 L 14.234375 3.429688 L 14.855469 3.429688 C 15.171875 3.429688 15.429688 3.171875 15.429688 2.855469 C 15.429688 2.542969 15.171875 2.285156 14.855469 2.285156 Z M 6.285156 1.714844 C 6.285156 1.398438 6.542969 1.144531 6.855469 1.144531 L 9.144531 1.144531 C 9.457031 1.144531 9.714844 1.398438 9.714844 1.714844 L 9.714844 2.285156 L 6.285156 2.285156 Z M 5.757812 13.714844 C 5.757812 13.714844 5.753906 13.714844 5.753906 13.714844 L 5.714844 13.714844 C 5.414062 13.714844 5.164062 13.484375 5.144531 13.183594 L 4.570312 5.183594 C 4.550781 4.867188 4.785156 4.59375 5.101562 4.570312 C 5.417969 4.550781 5.691406 4.785156 5.714844 5.101562 L 6.285156 13.101562 C 6.308594 13.417969 6.074219 13.691406 5.757812 13.714844 Z M 8.570312 13.144531 C 8.570312 13.457031 8.316406 13.714844 8 13.714844 C 7.683594 13.714844 7.429688 13.457031 7.429688 13.144531 L 7.429688 5.144531 C 7.429688 4.828125 7.683594 4.570312 8 4.570312 C 8.316406 4.570312 8.570312 4.828125 8.570312 5.144531 Z M 11.429688 5.183594 L 10.855469 13.183594 C 10.835938 13.484375 10.585938 13.714844 10.285156 13.714844 L 10.246094 13.714844 C 9.929688 13.691406 9.691406 13.417969 9.714844 13.105469 C 9.714844 13.105469 9.714844 13.101562 9.714844 13.101562 L 10.285156 5.101562 C 10.308594 4.785156 10.582031 4.550781 10.898438 4.570312 C 11.214844 4.59375 11.449219 4.867188 11.429688 5.183594 Z M 11.429688 5.183594 "/>
</g>
</svg>
